<svg xmlns="http://www.w3.org/2000/svg" version="1.1" width="70" height="70" viewBox="0 0 70 70"><rect x="0" y="0" width="70" height="70" fill="#ffffff"/><g transform="scale(1.892)"><g transform="translate(0,0)"><path fill-rule="evenodd" d="M9 0L9 1L8 1L8 2L9 2L9 3L8 3L8 4L9 4L9 5L8 5L8 7L9 7L9 8L6 8L6 9L5 9L5 8L0 8L0 9L1 9L1 10L4 10L4 9L5 9L5 10L6 10L6 11L7 11L7 10L6 10L6 9L10 9L10 8L11 8L11 6L10 6L10 5L12 5L12 8L13 8L13 4L15 4L15 2L16 2L16 3L17 3L17 4L16 4L16 5L14 5L14 7L15 7L15 6L16 6L16 8L17 8L17 9L16 9L16 10L15 10L15 8L14 8L14 9L11 9L11 10L8 10L8 11L11 11L11 10L12 10L12 12L13 12L13 11L14 11L14 13L10 13L10 12L9 12L9 14L8 14L8 15L7 15L7 14L6 14L6 15L7 15L7 16L5 16L5 13L8 13L8 12L5 12L5 11L3 11L3 13L2 13L2 14L1 14L1 13L0 13L0 14L1 14L1 15L0 15L0 17L1 17L1 18L3 18L3 17L4 17L4 19L0 19L0 20L2 20L2 21L0 21L0 23L1 23L1 22L3 22L3 21L4 21L4 22L6 22L6 23L8 23L8 22L9 22L9 21L11 21L11 22L14 22L14 24L13 24L13 25L11 25L11 24L10 24L10 23L9 23L9 24L5 24L5 25L4 25L4 23L3 23L3 24L0 24L0 29L1 29L1 25L2 25L2 29L3 29L3 25L4 25L4 26L5 26L5 28L4 28L4 29L7 29L7 28L8 28L8 31L10 31L10 32L8 32L8 37L9 37L9 35L11 35L11 34L12 34L12 35L14 35L14 36L13 36L13 37L14 37L14 36L15 36L15 37L16 37L16 36L15 36L15 35L17 35L17 34L18 34L18 35L19 35L19 36L20 36L20 37L28 37L28 36L29 36L29 35L30 35L30 37L37 37L37 34L35 34L35 32L34 32L34 30L33 30L33 26L34 26L34 27L36 27L36 28L37 28L37 26L36 26L36 25L37 25L37 22L36 22L36 21L37 21L37 18L36 18L36 17L37 17L37 14L36 14L36 13L35 13L35 12L34 12L34 11L35 11L35 9L36 9L36 8L35 8L35 9L34 9L34 8L33 8L33 9L34 9L34 11L32 11L32 13L31 13L31 12L30 12L30 10L29 10L29 9L30 9L30 8L29 8L29 9L28 9L28 10L27 10L27 11L26 11L26 12L25 12L25 13L24 13L24 11L23 11L23 10L24 10L24 9L23 9L23 8L25 8L25 9L27 9L27 8L28 8L28 7L29 7L29 4L28 4L28 3L29 3L29 2L28 2L28 1L29 1L29 0L28 0L28 1L27 1L27 2L26 2L26 3L24 3L24 2L23 2L23 1L24 1L24 0L23 0L23 1L22 1L22 2L21 2L21 0L19 0L19 1L17 1L17 0L16 0L16 1L14 1L14 0ZM25 0L25 1L26 1L26 0ZM10 1L10 3L9 3L9 4L13 4L13 3L14 3L14 2L13 2L13 3L12 3L12 1ZM16 1L16 2L17 2L17 3L18 3L18 4L17 4L17 5L19 5L19 8L18 8L18 6L17 6L17 8L18 8L18 9L19 9L19 8L20 8L20 9L22 9L22 10L23 10L23 9L22 9L22 8L20 8L20 5L19 5L19 4L21 4L21 7L22 7L22 5L23 5L23 7L24 7L24 6L25 6L25 8L26 8L26 6L27 6L27 7L28 7L28 6L27 6L27 5L28 5L28 4L24 4L24 5L23 5L23 4L22 4L22 3L23 3L23 2L22 2L22 3L21 3L21 2L20 2L20 1L19 1L19 3L18 3L18 2L17 2L17 1ZM27 2L27 3L28 3L28 2ZM25 5L25 6L26 6L26 5ZM9 6L9 7L10 7L10 6ZM31 8L31 10L32 10L32 8ZM17 10L17 11L15 11L15 12L18 12L18 13L17 13L17 14L16 14L16 13L14 13L14 14L13 14L13 16L10 16L10 14L9 14L9 15L8 15L8 17L6 17L6 18L5 18L5 19L6 19L6 20L9 20L9 19L10 19L10 20L11 20L11 21L13 21L13 20L14 20L14 21L15 21L15 22L16 22L16 21L17 21L17 23L15 23L15 24L14 24L14 25L13 25L13 26L14 26L14 25L15 25L15 26L16 26L16 27L15 27L15 28L14 28L14 27L13 27L13 28L12 28L12 26L11 26L11 25L5 25L5 26L7 26L7 27L6 27L6 28L7 28L7 27L8 27L8 26L9 26L9 27L10 27L10 31L11 31L11 32L12 32L12 33L13 33L13 34L14 34L14 35L15 35L15 34L16 34L16 33L17 33L17 32L18 32L18 33L21 33L21 34L22 34L22 33L23 33L23 32L20 32L20 30L17 30L17 32L16 32L16 33L15 33L15 32L14 32L14 31L13 31L13 30L14 30L14 29L15 29L15 30L16 30L16 29L17 29L17 28L18 28L18 29L22 29L22 30L23 30L23 31L24 31L24 32L26 32L26 31L24 31L24 30L25 30L25 29L24 29L24 30L23 30L23 29L22 29L22 28L21 28L21 27L20 27L20 26L19 26L19 27L20 27L20 28L18 28L18 25L17 25L17 26L16 26L16 25L15 25L15 24L19 24L19 23L20 23L20 22L18 22L18 21L19 21L19 19L22 19L22 20L20 20L20 21L22 21L22 23L23 23L23 25L22 25L22 24L20 24L20 25L21 25L21 26L23 26L23 27L24 27L24 28L26 28L26 30L27 30L27 31L28 31L28 29L27 29L27 27L25 27L25 25L24 25L24 24L26 24L26 23L24 23L24 22L23 22L23 21L22 21L22 20L23 20L23 19L24 19L24 20L26 20L26 19L27 19L27 20L28 20L28 19L29 19L29 21L30 21L30 22L29 22L29 24L28 24L28 23L27 23L27 25L26 25L26 26L28 26L28 28L30 28L30 27L31 27L31 25L32 25L32 26L33 26L33 25L34 25L34 26L35 26L35 25L34 25L34 24L36 24L36 23L35 23L35 21L32 21L32 20L36 20L36 19L35 19L35 17L36 17L36 14L35 14L35 15L34 15L34 13L32 13L32 14L31 14L31 13L30 13L30 14L29 14L29 15L30 15L30 16L31 16L31 17L30 17L30 18L31 18L31 17L32 17L32 19L31 19L31 21L30 21L30 19L29 19L29 18L28 18L28 17L29 17L29 16L28 16L28 17L26 17L26 18L23 18L23 17L25 17L25 16L27 16L27 15L26 15L26 13L25 13L25 16L23 16L23 17L22 17L22 16L20 16L20 15L22 15L22 13L21 13L21 10L19 10L19 11L18 11L18 10ZM28 10L28 11L27 11L27 12L29 12L29 10ZM36 10L36 11L37 11L37 10ZM0 11L0 12L2 12L2 11ZM22 11L22 12L23 12L23 11ZM4 12L4 13L5 13L5 12ZM18 13L18 15L19 15L19 14L20 14L20 13ZM27 13L27 14L28 14L28 13ZM3 14L3 15L2 15L2 16L4 16L4 14ZM11 14L11 15L12 15L12 14ZM15 14L15 15L14 15L14 16L13 16L13 17L10 17L10 16L9 16L9 17L10 17L10 18L12 18L12 19L11 19L11 20L13 20L13 17L16 17L16 16L17 16L17 17L18 17L18 18L14 18L14 19L15 19L15 21L16 21L16 20L17 20L17 21L18 21L18 20L17 20L17 19L18 19L18 18L21 18L21 17L18 17L18 16L17 16L17 15L16 15L16 14ZM23 14L23 15L24 15L24 14ZM30 14L30 15L31 15L31 16L32 16L32 17L33 17L33 15L31 15L31 14ZM15 15L15 16L16 16L16 15ZM34 16L34 17L35 17L35 16ZM6 18L6 19L9 19L9 18ZM22 18L22 19L23 19L23 18ZM27 18L27 19L28 19L28 18ZM33 18L33 19L34 19L34 18ZM6 21L6 22L8 22L8 21ZM26 21L26 22L28 22L28 21ZM31 21L31 23L33 23L33 22L32 22L32 21ZM30 24L30 25L29 25L29 26L30 26L30 25L31 25L31 24ZM32 24L32 25L33 25L33 24ZM23 25L23 26L24 26L24 25ZM16 27L16 28L17 28L17 27ZM11 28L11 30L13 30L13 29L14 29L14 28L13 28L13 29L12 29L12 28ZM34 28L34 29L35 29L35 28ZM29 29L29 32L32 32L32 29ZM30 30L30 31L31 31L31 30ZM35 30L35 31L37 31L37 30ZM12 31L12 32L13 32L13 33L14 33L14 34L15 34L15 33L14 33L14 32L13 32L13 31ZM18 31L18 32L19 32L19 31ZM9 33L9 34L11 34L11 33ZM24 33L24 34L23 34L23 35L24 35L24 36L26 36L26 35L27 35L27 36L28 36L28 35L29 35L29 34L30 34L30 35L31 35L31 36L36 36L36 35L33 35L33 34L34 34L34 33L33 33L33 34L32 34L32 33L31 33L31 34L30 34L30 33L28 33L28 35L27 35L27 34L26 34L26 33ZM19 34L19 35L20 35L20 36L21 36L21 35L20 35L20 34ZM25 34L25 35L26 35L26 34ZM31 34L31 35L32 35L32 34ZM17 36L17 37L18 37L18 36ZM0 0L0 7L7 7L7 0ZM1 1L1 6L6 6L6 1ZM2 2L2 5L5 5L5 2ZM30 0L30 7L37 7L37 0ZM31 1L31 6L36 6L36 1ZM32 2L32 5L35 5L35 2ZM0 30L0 37L7 37L7 30ZM1 31L1 36L6 36L6 31ZM2 32L2 35L5 35L5 32Z" fill="#000000"/></g></g></svg>