<svg xmlns="http://www.w3.org/2000/svg" version="1.1" width="70" height="70" viewBox="0 0 70 70"><rect x="0" y="0" width="70" height="70" fill="#ffffff"/><g transform="scale(1.707)"><g transform="translate(0,0)"><path fill-rule="evenodd" d="M8 0L8 1L13 1L13 0ZM16 0L16 2L15 2L15 3L16 3L16 2L17 2L17 3L19 3L19 4L17 4L17 5L18 5L18 7L19 7L19 9L18 9L18 8L14 8L14 7L15 7L15 5L16 5L16 4L13 4L13 2L12 2L12 3L10 3L10 2L9 2L9 4L10 4L10 5L9 5L9 6L8 6L8 8L9 8L9 9L7 9L7 8L6 8L6 9L7 9L7 10L6 10L6 11L7 11L7 12L6 12L6 13L7 13L7 14L6 14L6 15L3 15L3 13L4 13L4 14L5 14L5 8L3 8L3 12L2 12L2 14L1 14L1 13L0 13L0 14L1 14L1 15L0 15L0 17L1 17L1 18L0 18L0 20L1 20L1 18L2 18L2 16L1 16L1 15L3 15L3 16L4 16L4 17L5 17L5 18L3 18L3 19L2 19L2 20L3 20L3 22L1 22L1 21L0 21L0 22L1 22L1 23L2 23L2 24L0 24L0 25L2 25L2 26L1 26L1 27L0 27L0 28L1 28L1 29L0 29L0 33L4 33L4 32L3 32L3 31L7 31L7 30L8 30L8 29L9 29L9 30L12 30L12 31L8 31L8 34L9 34L9 33L10 33L10 32L11 32L11 34L10 34L10 35L9 35L9 36L8 36L8 38L11 38L11 37L12 37L12 38L13 38L13 39L12 39L12 40L11 40L11 41L12 41L12 40L13 40L13 41L14 41L14 40L15 40L15 41L18 41L18 40L19 40L19 39L20 39L20 41L21 41L21 38L24 38L24 39L26 39L26 38L25 38L25 37L24 37L24 36L25 36L25 35L26 35L26 37L27 37L27 40L28 40L28 41L29 41L29 40L28 40L28 39L29 39L29 38L30 38L30 41L34 41L34 40L36 40L36 39L37 39L37 41L38 41L38 40L39 40L39 37L38 37L38 36L37 36L37 35L38 35L38 33L39 33L39 34L40 34L40 33L39 33L39 32L41 32L41 30L40 30L40 31L39 31L39 30L38 30L38 29L36 29L36 28L37 28L37 27L38 27L38 28L39 28L39 29L40 29L40 28L39 28L39 27L41 27L41 25L40 25L40 24L41 24L41 23L40 23L40 24L39 24L39 25L40 25L40 26L38 26L38 23L39 23L39 22L40 22L40 21L41 21L41 20L39 20L39 18L37 18L37 17L38 17L38 16L39 16L39 15L38 15L38 14L40 14L40 16L41 16L41 11L39 11L39 10L40 10L40 9L41 9L41 8L40 8L40 9L35 9L35 8L34 8L34 9L33 9L33 10L32 10L32 7L33 7L33 6L32 6L32 7L31 7L31 6L30 6L30 7L31 7L31 10L30 10L30 11L29 11L29 10L28 10L28 9L27 9L27 8L26 8L26 7L27 7L27 5L26 5L26 7L25 7L25 4L27 4L27 3L26 3L26 1L27 1L27 0L25 0L25 4L24 4L24 2L22 2L22 1L23 1L23 0L21 0L21 2L20 2L20 1L19 1L19 2L18 2L18 1L17 1L17 0ZM29 0L29 1L31 1L31 5L32 5L32 4L33 4L33 3L32 3L32 2L33 2L33 1L31 1L31 0ZM19 2L19 3L20 3L20 4L19 4L19 7L20 7L20 4L21 4L21 5L22 5L22 6L21 6L21 10L19 10L19 11L18 11L18 12L19 12L19 11L20 11L20 12L21 12L21 13L20 13L20 14L19 14L19 13L18 13L18 15L16 15L16 12L17 12L17 11L15 11L15 13L12 13L12 12L14 12L14 9L13 9L13 8L12 8L12 5L13 5L13 7L14 7L14 5L13 5L13 4L12 4L12 5L10 5L10 6L9 6L9 8L10 8L10 9L11 9L11 8L12 8L12 10L10 10L10 11L9 11L9 13L8 13L8 12L7 12L7 13L8 13L8 14L7 14L7 15L6 15L6 16L5 16L5 17L6 17L6 18L7 18L7 19L6 19L6 20L5 20L5 21L4 21L4 23L5 23L5 22L7 22L7 23L6 23L6 24L7 24L7 25L5 25L5 26L3 26L3 27L1 27L1 28L2 28L2 31L3 31L3 30L5 30L5 29L6 29L6 30L7 30L7 29L6 29L6 28L8 28L8 27L10 27L10 26L11 26L11 27L12 27L12 28L10 28L10 29L12 29L12 30L13 30L13 31L12 31L12 32L13 32L13 33L12 33L12 34L13 34L13 33L16 33L16 34L17 34L17 35L16 35L16 36L15 36L15 34L14 34L14 37L15 37L15 38L14 38L14 39L13 39L13 40L14 40L14 39L15 39L15 40L16 40L16 39L17 39L17 40L18 40L18 39L19 39L19 38L18 38L18 37L20 37L20 36L18 36L18 35L21 35L21 37L22 37L22 35L23 35L23 36L24 36L24 35L25 35L25 34L26 34L26 32L25 32L25 33L24 33L24 35L23 35L23 34L22 34L22 33L23 33L23 32L24 32L24 31L27 31L27 30L26 30L26 29L25 29L25 28L28 28L28 31L29 31L29 32L27 32L27 33L29 33L29 32L30 32L30 29L32 29L32 28L31 28L31 27L29 27L29 28L28 28L28 27L26 27L26 26L25 26L25 25L27 25L27 24L28 24L28 26L33 26L33 28L34 28L34 29L33 29L33 31L32 31L32 32L31 32L31 33L30 33L30 34L28 34L28 35L27 35L27 36L28 36L28 35L30 35L30 36L29 36L29 37L31 37L31 40L34 40L34 39L35 39L35 37L34 37L34 39L32 39L32 38L33 38L33 37L31 37L31 34L32 34L32 32L35 32L35 30L36 30L36 29L35 29L35 27L36 27L36 26L34 26L34 24L35 24L35 23L36 23L36 22L35 22L35 21L34 21L34 20L33 20L33 21L32 21L32 22L31 22L31 20L30 20L30 19L31 19L31 17L32 17L32 16L34 16L34 17L33 17L33 18L32 18L32 19L36 19L36 17L37 17L37 16L34 16L34 12L32 12L32 10L31 10L31 14L32 14L32 15L29 15L29 14L30 14L30 12L29 12L29 11L28 11L28 12L27 12L27 13L26 13L26 11L27 11L27 9L26 9L26 8L25 8L25 9L24 9L24 8L23 8L23 7L24 7L24 6L23 6L23 5L24 5L24 4L23 4L23 5L22 5L22 4L21 4L21 3L20 3L20 2ZM28 3L28 5L29 5L29 4L30 4L30 3ZM10 6L10 8L11 8L11 6ZM16 6L16 7L17 7L17 6ZM22 6L22 7L23 7L23 6ZM28 6L28 7L29 7L29 6ZM0 8L0 10L2 10L2 8ZM22 8L22 10L21 10L21 11L22 11L22 13L21 13L21 14L26 14L26 13L23 13L23 12L25 12L25 11L24 11L24 9L23 9L23 8ZM29 8L29 9L30 9L30 8ZM16 9L16 10L18 10L18 9ZM25 9L25 10L26 10L26 9ZM34 9L34 10L35 10L35 11L38 11L38 12L36 12L36 13L37 13L37 14L38 14L38 13L39 13L39 11L38 11L38 10L35 10L35 9ZM22 10L22 11L23 11L23 10ZM0 11L0 12L1 12L1 11ZM10 11L10 13L9 13L9 16L12 16L12 17L13 17L13 18L11 18L11 17L8 17L8 19L7 19L7 20L6 20L6 21L7 21L7 22L8 22L8 25L7 25L7 26L5 26L5 27L7 27L7 26L9 26L9 25L11 25L11 26L12 26L12 24L13 24L13 23L12 23L12 22L13 22L13 21L14 21L14 22L15 22L15 23L14 23L14 24L15 24L15 28L14 28L14 30L15 30L15 28L16 28L16 27L17 27L17 24L19 24L19 25L18 25L18 27L20 27L20 26L21 26L21 27L22 27L22 28L23 28L23 29L24 29L24 30L23 30L23 31L22 31L22 32L23 32L23 31L24 31L24 30L25 30L25 29L24 29L24 28L25 28L25 27L24 27L24 28L23 28L23 26L24 26L24 25L23 25L23 26L21 26L21 24L19 24L19 23L17 23L17 22L19 22L19 21L16 21L16 20L15 20L15 19L16 19L16 17L15 17L15 19L14 19L14 20L13 20L13 21L12 21L12 22L11 22L11 24L9 24L9 23L10 23L10 21L11 21L11 19L13 19L13 18L14 18L14 16L16 16L16 15L15 15L15 14L14 14L14 16L12 16L12 15L13 15L13 14L11 14L11 15L10 15L10 13L11 13L11 12L12 12L12 11ZM28 12L28 14L27 14L27 15L26 15L26 16L22 16L22 17L26 17L26 16L28 16L28 14L29 14L29 12ZM35 14L35 15L36 15L36 14ZM7 15L7 16L6 16L6 17L7 17L7 16L8 16L8 15ZM19 15L19 17L18 17L18 18L19 18L19 19L17 19L17 20L19 20L19 19L20 19L20 15ZM27 17L27 19L29 19L29 18L30 18L30 17ZM10 18L10 19L11 19L11 18ZM21 18L21 19L25 19L25 20L26 20L26 19L25 19L25 18ZM40 18L40 19L41 19L41 18ZM3 19L3 20L4 20L4 19ZM8 19L8 20L7 20L7 21L10 21L10 20L9 20L9 19ZM20 20L20 22L21 22L21 20ZM22 20L22 21L23 21L23 24L25 24L25 22L26 22L26 24L27 24L27 23L28 23L28 22L26 22L26 21L23 21L23 20ZM27 20L27 21L28 21L28 20ZM29 20L29 21L30 21L30 20ZM36 20L36 21L38 21L38 20ZM15 21L15 22L16 22L16 21ZM29 22L29 24L30 24L30 25L33 25L33 23L32 23L32 24L31 24L31 23L30 23L30 22ZM34 22L34 23L35 23L35 22ZM37 22L37 23L38 23L38 22ZM15 23L15 24L16 24L16 23ZM2 24L2 25L3 25L3 24ZM36 24L36 25L37 25L37 24ZM13 25L13 27L14 27L14 25ZM19 25L19 26L20 26L20 25ZM3 27L3 29L5 29L5 28L4 28L4 27ZM12 28L12 29L13 29L13 28ZM17 28L17 29L19 29L19 28ZM20 28L20 31L21 31L21 30L22 30L22 29L21 29L21 28ZM16 30L16 31L15 31L15 32L16 32L16 33L17 33L17 34L20 34L20 33L18 33L18 32L17 32L17 30ZM37 30L37 33L38 33L38 30ZM13 31L13 32L14 32L14 31ZM6 32L6 33L7 33L7 32ZM33 33L33 36L36 36L36 33ZM21 34L21 35L22 35L22 34ZM34 34L34 35L35 35L35 34ZM10 35L10 36L12 36L12 37L13 37L13 35ZM39 35L39 36L40 36L40 40L41 40L41 35ZM17 36L17 37L18 37L18 36ZM36 37L36 38L37 38L37 39L38 39L38 38L37 38L37 37ZM15 38L15 39L16 39L16 38ZM8 39L8 41L10 41L10 40L9 40L9 39ZM22 39L22 41L26 41L26 40L23 40L23 39ZM0 0L0 7L7 7L7 0ZM1 1L1 6L6 6L6 1ZM2 2L2 5L5 5L5 2ZM34 0L34 7L41 7L41 0ZM35 1L35 6L40 6L40 1ZM36 2L36 5L39 5L39 2ZM0 34L0 41L7 41L7 34ZM1 35L1 40L6 40L6 35ZM2 36L2 39L5 39L5 36Z" fill="#000000"/></g></g></svg>