<svg xmlns="http://www.w3.org/2000/svg" version="1.1" width="70" height="70" viewBox="0 0 70 70"><rect x="0" y="0" width="70" height="70" fill="#ffffff"/><g transform="scale(1.707)"><g transform="translate(0,0)"><path fill-rule="evenodd" d="M8 0L8 4L9 4L9 5L8 5L8 7L9 7L9 8L11 8L11 10L10 10L10 9L7 9L7 8L4 8L4 10L3 10L3 9L2 9L2 8L0 8L0 9L2 9L2 10L3 10L3 11L4 11L4 12L3 12L3 13L2 13L2 11L0 11L0 12L1 12L1 13L2 13L2 14L0 14L0 15L2 15L2 17L1 17L1 19L2 19L2 20L0 20L0 21L3 21L3 19L2 19L2 18L3 18L3 17L4 17L4 16L5 16L5 17L7 17L7 16L8 16L8 17L9 17L9 18L8 18L8 19L9 19L9 22L10 22L10 23L8 23L8 20L6 20L6 19L7 19L7 18L4 18L4 20L6 20L6 21L5 21L5 22L0 22L0 23L1 23L1 25L0 25L0 26L1 26L1 27L0 27L0 28L1 28L1 27L2 27L2 28L3 28L3 30L2 30L2 29L0 29L0 30L2 30L2 32L0 32L0 33L3 33L3 32L4 32L4 33L8 33L8 34L9 34L9 35L8 35L8 37L9 37L9 35L10 35L10 37L11 37L11 35L12 35L12 34L13 34L13 37L12 37L12 38L11 38L11 40L10 40L10 41L11 41L11 40L12 40L12 39L13 39L13 38L14 38L14 40L16 40L16 41L17 41L17 40L18 40L18 39L19 39L19 38L20 38L20 39L21 39L21 40L19 40L19 41L25 41L25 40L24 40L24 38L25 38L25 37L23 37L23 35L25 35L25 34L24 34L24 33L25 33L25 31L28 31L28 30L31 30L31 29L34 29L34 30L36 30L36 31L33 31L33 30L32 30L32 31L31 31L31 32L30 32L30 31L29 31L29 32L27 32L27 33L26 33L26 34L27 34L27 35L26 35L26 37L27 37L27 36L28 36L28 38L27 38L27 39L26 39L26 40L28 40L28 41L31 41L31 40L30 40L30 38L31 38L31 39L32 39L32 41L34 41L34 37L35 37L35 38L36 38L36 37L37 37L37 38L39 38L39 37L38 37L38 36L37 36L37 35L39 35L39 36L40 36L40 35L41 35L41 29L40 29L40 32L39 32L39 33L40 33L40 35L39 35L39 34L37 34L37 33L38 33L38 32L36 32L36 31L37 31L37 30L38 30L38 31L39 31L39 29L38 29L38 28L37 28L37 29L34 29L34 27L36 27L36 26L38 26L38 27L39 27L39 26L38 26L38 25L34 25L34 23L33 23L33 22L32 22L32 23L33 23L33 24L30 24L30 23L31 23L31 21L32 21L32 20L31 20L31 18L30 18L30 16L31 16L31 17L33 17L33 16L35 16L35 17L34 17L34 18L32 18L32 19L34 19L34 20L33 20L33 21L34 21L34 22L37 22L37 24L38 24L38 22L40 22L40 23L39 23L39 24L40 24L40 28L41 28L41 20L40 20L40 19L41 19L41 17L40 17L40 16L41 16L41 13L38 13L38 15L37 15L37 13L36 13L36 11L37 11L37 12L38 12L38 11L37 11L37 9L38 9L38 10L39 10L39 9L40 9L40 11L41 11L41 8L37 8L37 9L36 9L36 8L35 8L35 9L33 9L33 6L32 6L32 5L33 5L33 4L32 4L32 3L30 3L30 1L31 1L31 2L33 2L33 1L31 1L31 0L30 0L30 1L29 1L29 0L25 0L25 1L29 1L29 3L30 3L30 4L29 4L29 5L28 5L28 3L27 3L27 2L26 2L26 3L25 3L25 2L24 2L24 4L23 4L23 2L20 2L20 1L19 1L19 3L17 3L17 4L18 4L18 5L16 5L16 7L15 7L15 6L14 6L14 5L15 5L15 4L16 4L16 2L18 2L18 0L17 0L17 1L16 1L16 0L15 0L15 1L16 1L16 2L15 2L15 3L14 3L14 2L13 2L13 0L12 0L12 2L11 2L11 1L10 1L10 0ZM23 0L23 1L24 1L24 0ZM9 1L9 3L11 3L11 2L10 2L10 1ZM12 3L12 4L11 4L11 8L12 8L12 6L13 6L13 8L14 8L14 10L11 10L11 13L10 13L10 12L9 12L9 11L8 11L8 12L9 12L9 13L10 13L10 14L9 14L9 15L8 15L8 16L9 16L9 17L10 17L10 19L11 19L11 17L10 17L10 16L12 16L12 19L13 19L13 18L14 18L14 17L15 17L15 16L16 16L16 17L17 17L17 15L18 15L18 14L19 14L19 13L18 13L18 12L17 12L17 10L18 10L18 11L19 11L19 12L20 12L20 11L21 11L21 10L23 10L23 9L24 9L24 10L25 10L25 9L26 9L26 10L27 10L27 8L26 8L26 6L27 6L27 7L28 7L28 8L29 8L29 7L30 7L30 6L31 6L31 8L30 8L30 9L29 9L29 10L28 10L28 11L27 11L27 12L29 12L29 11L31 11L31 12L30 12L30 13L28 13L28 14L29 14L29 15L28 15L28 16L27 16L27 13L26 13L26 11L24 11L24 13L26 13L26 15L25 15L25 14L24 14L24 15L23 15L23 14L21 14L21 13L20 13L20 15L22 15L22 16L23 16L23 17L24 17L24 19L25 19L25 20L22 20L22 21L21 21L21 20L19 20L19 19L20 19L20 17L21 17L21 18L22 18L22 17L21 17L21 16L18 16L18 17L19 17L19 19L18 19L18 18L16 18L16 19L17 19L17 21L16 21L16 20L15 20L15 19L14 19L14 21L13 21L13 20L10 20L10 21L11 21L11 22L12 22L12 21L13 21L13 22L14 22L14 21L15 21L15 22L16 22L16 23L18 23L18 25L17 25L17 24L14 24L14 23L12 23L12 24L11 24L11 23L10 23L10 24L11 24L11 26L12 26L12 28L11 28L11 30L10 30L10 25L9 25L9 24L7 24L7 23L5 23L5 25L6 25L6 26L5 26L5 27L4 27L4 28L5 28L5 29L4 29L4 30L5 30L5 32L8 32L8 33L9 33L9 34L10 34L10 35L11 35L11 32L12 32L12 31L13 31L13 34L14 34L14 33L15 33L15 32L16 32L16 33L17 33L17 31L18 31L18 30L19 30L19 29L18 29L18 28L17 28L17 27L15 27L15 25L17 25L17 26L18 26L18 27L19 27L19 28L20 28L20 27L21 27L21 26L23 26L23 25L24 25L24 26L25 26L25 27L24 27L24 28L23 28L23 27L22 27L22 28L21 28L21 29L20 29L20 31L22 31L22 32L23 32L23 33L22 33L22 34L21 34L21 33L20 33L20 32L18 32L18 33L19 33L19 35L18 35L18 34L16 34L16 35L14 35L14 37L15 37L15 38L16 38L16 39L17 39L17 38L18 38L18 37L22 37L22 38L21 38L21 39L23 39L23 37L22 37L22 35L23 35L23 33L24 33L24 32L23 32L23 29L26 29L26 30L28 30L28 29L29 29L29 28L27 28L27 27L26 27L26 26L25 26L25 25L27 25L27 24L26 24L26 23L27 23L27 21L29 21L29 22L28 22L28 23L29 23L29 22L30 22L30 21L31 21L31 20L30 20L30 21L29 21L29 20L27 20L27 21L26 21L26 19L27 19L27 18L26 18L26 19L25 19L25 17L28 17L28 18L29 18L29 19L30 19L30 18L29 18L29 15L31 15L31 16L32 16L32 15L34 15L34 13L35 13L35 12L34 12L34 13L32 13L32 11L34 11L34 10L33 10L33 9L31 9L31 8L32 8L32 6L31 6L31 5L32 5L32 4L30 4L30 6L29 6L29 7L28 7L28 5L27 5L27 3L26 3L26 6L25 6L25 7L24 7L24 5L23 5L23 7L24 7L24 8L22 8L22 9L21 9L21 7L22 7L22 6L21 6L21 5L20 5L20 6L19 6L19 8L18 8L18 9L17 9L17 8L14 8L14 6L13 6L13 5L14 5L14 3ZM21 3L21 4L22 4L22 3ZM9 6L9 7L10 7L10 6ZM17 6L17 7L18 7L18 6ZM20 6L20 7L21 7L21 6ZM19 8L19 9L18 9L18 10L19 10L19 9L20 9L20 10L21 10L21 9L20 9L20 8ZM24 8L24 9L25 9L25 8ZM6 9L6 10L5 10L5 11L6 11L6 12L5 12L5 13L6 13L6 14L7 14L7 13L6 13L6 12L7 12L7 11L6 11L6 10L7 10L7 9ZM15 9L15 11L14 11L14 12L13 12L13 11L12 11L12 13L13 13L13 15L12 15L12 16L13 16L13 15L15 15L15 14L14 14L14 13L16 13L16 15L17 15L17 14L18 14L18 13L16 13L16 10L17 10L17 9ZM35 10L35 11L36 11L36 10ZM22 12L22 13L23 13L23 12ZM30 13L30 14L31 14L31 13ZM4 14L4 15L5 15L5 16L7 16L7 15L5 15L5 14ZM10 14L10 15L9 15L9 16L10 16L10 15L11 15L11 14ZM39 14L39 15L38 15L38 17L39 17L39 15L40 15L40 14ZM36 15L36 17L37 17L37 15ZM24 16L24 17L25 17L25 16ZM34 18L34 19L35 19L35 20L34 20L34 21L35 21L35 20L36 20L36 21L37 21L37 22L38 22L38 21L39 21L39 19L40 19L40 18ZM6 21L6 22L7 22L7 21ZM17 21L17 22L18 22L18 23L19 23L19 22L20 22L20 23L21 23L21 24L19 24L19 25L18 25L18 26L19 26L19 25L20 25L20 26L21 26L21 25L23 25L23 24L22 24L22 23L24 23L24 22L25 22L25 21L22 21L22 23L21 23L21 21ZM3 23L3 25L4 25L4 23ZM6 24L6 25L7 25L7 24ZM1 25L1 26L2 26L2 27L3 27L3 26L2 26L2 25ZM8 25L8 26L6 26L6 27L5 27L5 28L6 28L6 29L7 29L7 30L6 30L6 31L7 31L7 30L9 30L9 31L8 31L8 32L9 32L9 33L10 33L10 32L11 32L11 31L10 31L10 30L9 30L9 28L8 28L8 29L7 29L7 28L6 28L6 27L8 27L8 26L9 26L9 25ZM13 25L13 26L14 26L14 25ZM28 25L28 26L29 26L29 27L30 27L30 29L31 29L31 27L32 27L32 28L33 28L33 27L34 27L34 25L30 25L30 26L29 26L29 25ZM30 26L30 27L31 27L31 26ZM32 26L32 27L33 27L33 26ZM14 27L14 28L12 28L12 29L13 29L13 30L14 30L14 31L15 31L15 30L14 30L14 29L16 29L16 31L17 31L17 30L18 30L18 29L16 29L16 28L15 28L15 27ZM26 28L26 29L27 29L27 28ZM21 29L21 30L22 30L22 29ZM32 31L32 32L33 32L33 31ZM28 33L28 34L29 34L29 35L30 35L30 34L31 34L31 33L30 33L30 34L29 34L29 33ZM33 33L33 36L36 36L36 33ZM20 34L20 35L19 35L19 36L21 36L21 34ZM34 34L34 35L35 35L35 34ZM15 36L15 37L17 37L17 36ZM30 36L30 37L31 37L31 38L33 38L33 37L31 37L31 36ZM40 37L40 39L39 39L39 40L38 40L38 39L36 39L36 40L35 40L35 41L36 41L36 40L37 40L37 41L40 41L40 40L41 40L41 37ZM8 39L8 41L9 41L9 39ZM28 39L28 40L29 40L29 39ZM0 0L0 7L7 7L7 0ZM1 1L1 6L6 6L6 1ZM2 2L2 5L5 5L5 2ZM34 0L34 7L41 7L41 0ZM35 1L35 6L40 6L40 1ZM36 2L36 5L39 5L39 2ZM0 34L0 41L7 41L7 34ZM1 35L1 40L6 40L6 35ZM2 36L2 39L5 39L5 36Z" fill="#000000"/></g></g></svg>