<svg xmlns="http://www.w3.org/2000/svg" version="1.1" width="70" height="70" viewBox="0 0 70 70"><rect x="0" y="0" width="70" height="70" fill="#ffffff"/><g transform="scale(1.707)"><g transform="translate(0,0)"><path fill-rule="evenodd" d="M8 0L8 4L9 4L9 5L8 5L8 7L9 7L9 8L10 8L10 7L11 7L11 9L13 9L13 10L11 10L11 11L12 11L12 12L11 12L11 13L10 13L10 14L11 14L11 13L13 13L13 14L14 14L14 16L15 16L15 17L14 17L14 18L12 18L12 16L13 16L13 15L12 15L12 16L10 16L10 15L9 15L9 13L8 13L8 14L6 14L6 13L7 13L7 12L6 12L6 11L7 11L7 10L5 10L5 9L7 9L7 8L4 8L4 10L3 10L3 9L2 9L2 8L0 8L0 9L2 9L2 10L0 10L0 11L1 11L1 12L0 12L0 15L2 15L2 17L1 17L1 16L0 16L0 17L1 17L1 18L0 18L0 20L1 20L1 21L0 21L0 22L2 22L2 24L0 24L0 30L1 30L1 29L2 29L2 30L3 30L3 29L2 29L2 28L3 28L3 27L2 27L2 24L5 24L5 27L4 27L4 28L5 28L5 29L7 29L7 30L6 30L6 31L7 31L7 30L9 30L9 29L10 29L10 27L11 27L11 29L13 29L13 30L14 30L14 32L15 32L15 33L14 33L14 34L13 34L13 37L12 37L12 38L11 38L11 37L10 37L10 36L12 36L12 33L13 33L13 31L12 31L12 32L11 32L11 31L9 31L9 32L8 32L8 34L9 34L9 35L8 35L8 37L9 37L9 38L11 38L11 39L10 39L10 40L9 40L9 39L8 39L8 41L11 41L11 40L12 40L12 39L13 39L13 37L14 37L14 40L16 40L16 41L17 41L17 40L18 40L18 39L19 39L19 38L20 38L20 39L21 39L21 40L19 40L19 41L23 41L23 39L24 39L24 38L25 38L25 37L23 37L23 35L25 35L25 34L26 34L26 37L27 37L27 39L26 39L26 40L27 40L27 41L31 41L31 40L32 40L32 41L34 41L34 40L35 40L35 41L36 41L36 40L38 40L38 38L39 38L39 37L38 37L38 36L37 36L37 35L39 35L39 34L37 34L37 33L38 33L38 31L39 31L39 29L40 29L40 31L41 31L41 21L40 21L40 20L41 20L41 17L40 17L40 16L41 16L41 12L40 12L40 11L41 11L41 8L37 8L37 9L36 9L36 8L35 8L35 9L33 9L33 8L32 8L32 7L33 7L33 6L32 6L32 5L31 5L31 4L32 4L32 3L31 3L31 2L33 2L33 1L31 1L31 0L25 0L25 1L26 1L26 3L25 3L25 2L24 2L24 4L23 4L23 2L20 2L20 1L19 1L19 3L17 3L17 4L18 4L18 5L16 5L16 7L15 7L15 6L14 6L14 5L15 5L15 4L16 4L16 2L18 2L18 0L17 0L17 1L16 1L16 0L15 0L15 1L16 1L16 2L15 2L15 3L14 3L14 2L12 2L12 1L11 1L11 3L10 3L10 1L9 1L9 0ZM23 0L23 1L24 1L24 0ZM27 1L27 3L26 3L26 6L25 6L25 7L24 7L24 5L23 5L23 7L24 7L24 8L22 8L22 9L21 9L21 7L22 7L22 6L21 6L21 5L20 5L20 6L19 6L19 8L18 8L18 9L17 9L17 8L14 8L14 6L13 6L13 7L12 7L12 5L14 5L14 3L13 3L13 4L12 4L12 3L11 3L11 5L10 5L10 6L9 6L9 7L10 7L10 6L11 6L11 7L12 7L12 8L14 8L14 10L13 10L13 12L14 12L14 11L15 11L15 9L17 9L17 10L16 10L16 13L14 13L14 14L15 14L15 16L16 16L16 17L17 17L17 15L18 15L18 14L19 14L19 13L18 13L18 12L17 12L17 10L18 10L18 11L19 11L19 12L20 12L20 9L21 9L21 10L23 10L23 9L24 9L24 10L25 10L25 11L24 11L24 13L26 13L26 15L25 15L25 14L24 14L24 16L23 16L23 11L22 11L22 12L21 12L21 13L20 13L20 15L22 15L22 16L23 16L23 17L24 17L24 19L25 19L25 20L23 20L23 21L22 21L22 19L23 19L23 18L21 18L21 20L19 20L19 19L20 19L20 17L21 17L21 16L18 16L18 17L19 17L19 19L18 19L18 18L16 18L16 19L17 19L17 21L16 21L16 20L15 20L15 19L14 19L14 21L13 21L13 20L12 20L12 19L11 19L11 17L9 17L9 18L8 18L8 17L5 17L5 14L3 14L3 12L4 12L4 13L5 13L5 10L4 10L4 11L3 11L3 10L2 10L2 13L1 13L1 14L3 14L3 15L4 15L4 16L3 16L3 17L2 17L2 18L1 18L1 19L2 19L2 22L5 22L5 24L7 24L7 25L6 25L6 26L7 26L7 25L8 25L8 24L9 24L9 25L10 25L10 26L11 26L11 25L12 25L12 27L13 27L13 28L14 28L14 27L15 27L15 28L16 28L16 29L14 29L14 30L15 30L15 32L16 32L16 33L17 33L17 31L18 31L18 30L19 30L19 29L18 29L18 28L17 28L17 27L15 27L15 26L13 26L13 25L17 25L17 26L18 26L18 27L19 27L19 28L20 28L20 27L21 27L21 26L23 26L23 25L24 25L24 26L25 26L25 27L24 27L24 28L23 28L23 27L22 27L22 28L21 28L21 29L20 29L20 31L22 31L22 32L23 32L23 33L22 33L22 34L21 34L21 33L20 33L20 32L18 32L18 33L19 33L19 35L18 35L18 34L16 34L16 35L14 35L14 37L15 37L15 38L16 38L16 39L17 39L17 38L18 38L18 37L22 37L22 38L21 38L21 39L23 39L23 37L22 37L22 35L23 35L23 33L24 33L24 34L25 34L25 33L28 33L28 34L29 34L29 35L30 35L30 34L31 34L31 33L30 33L30 34L29 34L29 33L28 33L28 32L29 32L29 31L30 31L30 32L32 32L32 31L35 31L35 30L34 30L34 29L35 29L35 28L36 28L36 29L37 29L37 28L38 28L38 29L39 29L39 28L40 28L40 24L39 24L39 23L40 23L40 22L36 22L36 23L35 23L35 22L34 22L34 21L39 21L39 20L40 20L40 17L39 17L39 15L40 15L40 14L38 14L38 13L39 13L39 11L40 11L40 10L38 10L38 9L37 9L37 11L36 11L36 10L35 10L35 11L34 11L34 10L33 10L33 9L31 9L31 8L30 8L30 10L28 10L28 11L26 11L26 10L27 10L27 9L28 9L28 8L29 8L29 7L30 7L30 6L31 6L31 7L32 7L32 6L31 6L31 5L30 5L30 6L29 6L29 7L28 7L28 5L29 5L29 4L30 4L30 3L29 3L29 1ZM30 1L30 2L31 2L31 1ZM21 3L21 4L22 4L22 3ZM27 3L27 5L28 5L28 3ZM17 6L17 7L18 7L18 6ZM20 6L20 7L21 7L21 6ZM26 6L26 8L27 8L27 6ZM19 8L19 9L18 9L18 10L19 10L19 9L20 9L20 8ZM24 8L24 9L25 9L25 10L26 10L26 9L25 9L25 8ZM8 10L8 11L9 11L9 12L10 12L10 10ZM30 10L30 11L29 11L29 12L26 12L26 13L27 13L27 15L28 15L28 13L30 13L30 14L31 14L31 13L30 13L30 11L31 11L31 10ZM32 11L32 12L33 12L33 13L34 13L34 15L29 15L29 18L28 18L28 17L26 17L26 18L27 18L27 19L26 19L26 21L27 21L27 23L26 23L26 24L27 24L27 25L26 25L26 26L27 26L27 28L26 28L26 29L21 29L21 30L23 30L23 31L24 31L24 30L25 30L25 31L27 31L27 32L28 32L28 31L29 31L29 30L30 30L30 29L29 29L29 28L30 28L30 27L31 27L31 29L34 29L34 28L32 28L32 27L36 27L36 26L38 26L38 27L39 27L39 26L38 26L38 23L37 23L37 25L34 25L34 23L33 23L33 21L34 21L34 20L35 20L35 19L34 19L34 18L39 18L39 17L38 17L38 16L37 16L37 15L35 15L35 14L37 14L37 13L34 13L34 11ZM35 11L35 12L36 12L36 11ZM37 11L37 12L38 12L38 11ZM16 13L16 15L17 15L17 14L18 14L18 13ZM21 13L21 14L22 14L22 13ZM6 15L6 16L7 16L7 15ZM8 15L8 16L9 16L9 15ZM24 16L24 17L25 17L25 16ZM30 16L30 18L29 18L29 19L30 19L30 18L31 18L31 20L30 20L30 21L28 21L28 20L27 20L27 21L28 21L28 24L29 24L29 22L30 22L30 21L31 21L31 23L30 23L30 24L32 24L32 21L31 21L31 20L34 20L34 19L32 19L32 18L34 18L34 17L35 17L35 16L33 16L33 17L31 17L31 16ZM36 16L36 17L37 17L37 16ZM3 17L3 20L4 20L4 21L7 21L7 22L6 22L6 23L7 23L7 24L8 24L8 23L10 23L10 22L11 22L11 24L12 24L12 25L13 25L13 24L12 24L12 23L15 23L15 24L17 24L17 25L18 25L18 26L19 26L19 25L20 25L20 26L21 26L21 25L23 25L23 24L24 24L24 22L25 22L25 21L23 21L23 22L22 22L22 23L21 23L21 21L17 21L17 22L18 22L18 23L16 23L16 22L15 22L15 21L14 21L14 22L13 22L13 21L12 21L12 20L11 20L11 19L10 19L10 18L9 18L9 19L8 19L8 18L6 18L6 19L8 19L8 20L4 20L4 17ZM8 20L8 21L9 21L9 22L10 22L10 21L11 21L11 22L12 22L12 21L11 21L11 20L10 20L10 21L9 21L9 20ZM7 22L7 23L8 23L8 22ZM19 22L19 23L18 23L18 25L19 25L19 24L21 24L21 23L20 23L20 22ZM22 23L22 24L23 24L23 23ZM3 25L3 26L4 26L4 25ZM28 25L28 26L31 26L31 27L32 27L32 26L34 26L34 25ZM8 26L8 27L6 27L6 28L7 28L7 29L9 29L9 26ZM27 28L27 29L26 29L26 30L27 30L27 29L28 29L28 30L29 30L29 29L28 29L28 28ZM16 29L16 31L17 31L17 30L18 30L18 29ZM2 31L2 32L0 32L0 33L2 33L2 32L3 32L3 33L4 33L4 32L5 32L5 31ZM36 31L36 32L37 32L37 31ZM6 32L6 33L7 33L7 32ZM9 32L9 34L10 34L10 32ZM24 32L24 33L25 33L25 32ZM40 32L40 39L39 39L39 41L40 41L40 40L41 40L41 32ZM33 33L33 36L36 36L36 33ZM20 34L20 35L19 35L19 36L21 36L21 34ZM34 34L34 35L35 35L35 34ZM9 35L9 36L10 36L10 35ZM15 36L15 37L17 37L17 36ZM27 36L27 37L31 37L31 38L30 38L30 40L31 40L31 38L33 38L33 37L31 37L31 36ZM34 37L34 39L35 39L35 40L36 40L36 39L37 39L37 38L38 38L38 37L36 37L36 38L35 38L35 37ZM28 38L28 39L29 39L29 38ZM24 40L24 41L25 41L25 40ZM0 0L0 7L7 7L7 0ZM1 1L1 6L6 6L6 1ZM2 2L2 5L5 5L5 2ZM34 0L34 7L41 7L41 0ZM35 1L35 6L40 6L40 1ZM36 2L36 5L39 5L39 2ZM0 34L0 41L7 41L7 34ZM1 35L1 40L6 40L6 35ZM2 36L2 39L5 39L5 36Z" fill="#000000"/></g></g></svg>