<svg xmlns="http://www.w3.org/2000/svg" version="1.1" width="70" height="70" viewBox="0 0 70 70"><rect x="0" y="0" width="70" height="70" fill="#ffffff"/><g transform="scale(1.707)"><g transform="translate(0,0)"><path fill-rule="evenodd" d="M8 0L8 4L9 4L9 3L10 3L10 5L11 5L11 6L10 6L10 7L9 7L9 5L8 5L8 7L9 7L9 10L8 10L8 11L9 11L9 12L10 12L10 13L9 13L9 14L10 14L10 16L9 16L9 19L8 19L8 18L6 18L6 17L7 17L7 16L8 16L8 15L7 15L7 14L5 14L5 16L4 16L4 18L5 18L5 19L3 19L3 18L0 18L0 22L1 22L1 23L0 23L0 27L2 27L2 28L0 28L0 30L1 30L1 29L4 29L4 28L6 28L6 29L5 29L5 31L10 31L10 32L6 32L6 33L8 33L8 34L9 34L9 35L8 35L8 37L9 37L9 38L10 38L10 39L8 39L8 41L9 41L9 40L10 40L10 41L13 41L13 39L12 39L12 40L10 40L10 39L11 39L11 38L10 38L10 35L12 35L12 36L11 36L11 37L13 37L13 38L14 38L14 37L15 37L15 39L14 39L14 40L16 40L16 41L17 41L17 40L18 40L18 39L19 39L19 41L25 41L25 38L24 38L24 37L25 37L25 36L24 36L24 37L22 37L22 35L21 35L21 34L20 34L20 35L19 35L19 36L18 36L18 34L19 34L19 33L23 33L23 35L26 35L26 36L29 36L29 37L26 37L26 38L27 38L27 39L26 39L26 40L28 40L28 41L31 41L31 40L30 40L30 35L29 35L29 34L28 34L28 33L31 33L31 37L33 37L33 38L31 38L31 39L32 39L32 41L34 41L34 37L35 37L35 38L36 38L36 37L38 37L38 38L37 38L37 39L36 39L36 40L35 40L35 41L36 41L36 40L37 40L37 41L38 41L38 38L40 38L40 39L39 39L39 41L40 41L40 40L41 40L41 37L38 37L38 36L37 36L37 35L39 35L39 36L41 36L41 34L40 34L40 33L41 33L41 32L40 32L40 31L41 31L41 29L40 29L40 31L39 31L39 30L38 30L38 31L37 31L37 29L38 29L38 28L37 28L37 29L36 29L36 28L35 28L35 29L34 29L34 28L32 28L32 27L36 27L36 26L38 26L38 27L39 27L39 28L41 28L41 21L40 21L40 20L41 20L41 17L40 17L40 16L41 16L41 13L39 13L39 14L40 14L40 15L39 15L39 17L38 17L38 14L37 14L37 12L38 12L38 11L37 11L37 9L38 9L38 10L39 10L39 9L40 9L40 11L39 11L39 12L40 12L40 11L41 11L41 8L37 8L37 9L36 9L36 8L35 8L35 9L33 9L33 8L32 8L32 7L33 7L33 6L32 6L32 5L31 5L31 4L32 4L32 3L31 3L31 2L33 2L33 1L31 1L31 0L30 0L30 1L31 1L31 2L29 2L29 3L27 3L27 1L29 1L29 0L25 0L25 2L24 2L24 3L25 3L25 6L24 6L24 8L23 8L23 5L22 5L22 4L21 4L21 3L22 3L22 2L20 2L20 1L16 1L16 0L15 0L15 1L14 1L14 0L13 0L13 2L14 2L14 3L15 3L15 4L16 4L16 5L15 5L15 6L14 6L14 5L13 5L13 3L12 3L12 4L11 4L11 3L10 3L10 1L11 1L11 2L12 2L12 0ZM21 0L21 1L22 1L22 0ZM23 0L23 1L24 1L24 0ZM15 1L15 2L16 2L16 3L17 3L17 5L16 5L16 6L15 6L15 8L14 8L14 6L13 6L13 8L14 8L14 9L13 9L13 10L12 10L12 8L11 8L11 7L12 7L12 6L11 6L11 7L10 7L10 8L11 8L11 9L10 9L10 10L9 10L9 11L10 11L10 12L11 12L11 14L12 14L12 13L13 13L13 12L12 12L12 11L13 11L13 10L15 10L15 8L16 8L16 9L17 9L17 10L16 10L16 12L17 12L17 11L18 11L18 12L19 12L19 11L20 11L20 9L21 9L21 10L22 10L22 11L23 11L23 8L22 8L22 9L21 9L21 8L20 8L20 6L21 6L21 7L22 7L22 6L21 6L21 5L20 5L20 4L19 4L19 2L18 2L18 3L17 3L17 2L16 2L16 1ZM25 2L25 3L26 3L26 2ZM29 3L29 4L31 4L31 3ZM26 4L26 6L25 6L25 9L24 9L24 10L25 10L25 11L24 11L24 13L23 13L23 12L22 12L22 13L23 13L23 14L20 14L20 13L21 13L21 12L20 12L20 13L18 13L18 14L17 14L17 13L15 13L15 11L14 11L14 13L15 13L15 14L16 14L16 15L18 15L18 14L19 14L19 16L18 16L18 17L17 17L17 16L15 16L15 15L14 15L14 14L13 14L13 15L12 15L12 16L11 16L11 17L10 17L10 19L9 19L9 20L8 20L8 21L4 21L4 20L1 20L1 22L2 22L2 24L1 24L1 25L2 25L2 26L4 26L4 27L3 27L3 28L4 28L4 27L6 27L6 28L7 28L7 29L6 29L6 30L9 30L9 29L8 29L8 27L6 27L6 26L9 26L9 27L10 27L10 28L11 28L11 30L12 30L12 29L13 29L13 30L14 30L14 29L15 29L15 30L17 30L17 31L18 31L18 30L19 30L19 32L18 32L18 33L17 33L17 32L16 32L16 31L12 31L12 32L11 32L11 33L9 33L9 34L11 34L11 33L12 33L12 35L13 35L13 36L14 36L14 35L15 35L15 36L17 36L17 34L18 34L18 33L19 33L19 32L20 32L20 31L22 31L22 32L24 32L24 31L25 31L25 33L24 33L24 34L25 34L25 33L27 33L27 31L25 31L25 29L26 29L26 30L27 30L27 29L29 29L29 28L27 28L27 27L24 27L24 28L23 28L23 25L21 25L21 26L20 26L20 24L21 24L21 23L22 23L22 24L24 24L24 26L25 26L25 25L28 25L28 26L31 26L31 27L32 27L32 26L34 26L34 25L37 25L37 22L36 22L36 21L39 21L39 20L40 20L40 18L35 18L35 20L34 20L34 17L35 17L35 16L33 16L33 17L32 17L32 16L30 16L30 17L29 17L29 16L28 16L28 18L29 18L29 19L31 19L31 20L30 20L30 21L29 21L29 20L27 20L27 21L29 21L29 22L30 22L30 21L31 21L31 23L30 23L30 24L32 24L32 22L33 22L33 23L34 23L34 25L28 25L28 24L29 24L29 23L27 23L27 22L26 22L26 18L25 18L25 17L27 17L27 14L26 14L26 15L25 15L25 13L27 13L27 12L28 12L28 13L29 13L29 14L28 14L28 15L34 15L34 13L35 13L35 11L36 11L36 12L37 12L37 11L36 11L36 10L35 10L35 11L34 11L34 13L32 13L32 11L33 11L33 9L31 9L31 8L30 8L30 9L29 9L29 10L28 10L28 11L26 11L26 10L27 10L27 9L28 9L28 5L27 5L27 4ZM17 5L17 6L16 6L16 7L17 7L17 9L18 9L18 10L19 10L19 9L20 9L20 8L19 8L19 6L20 6L20 5ZM30 5L30 6L29 6L29 7L30 7L30 6L31 6L31 7L32 7L32 6L31 6L31 5ZM17 6L17 7L18 7L18 6ZM26 6L26 8L27 8L27 6ZM0 8L0 9L2 9L2 11L1 11L1 10L0 10L0 14L1 14L1 12L2 12L2 11L4 11L4 12L5 12L5 13L8 13L8 12L6 12L6 11L7 11L7 10L6 10L6 11L4 11L4 9L7 9L7 8L4 8L4 9L2 9L2 8ZM18 8L18 9L19 9L19 8ZM25 9L25 10L26 10L26 9ZM29 10L29 12L30 12L30 10ZM2 13L2 14L4 14L4 13ZM30 13L30 14L31 14L31 13ZM23 14L23 16L22 16L22 15L21 15L21 17L20 17L20 19L19 19L19 20L18 20L18 18L19 18L19 17L18 17L18 18L17 18L17 17L13 17L13 16L12 16L12 17L11 17L11 19L10 19L10 20L9 20L9 21L8 21L8 23L7 23L7 22L4 22L4 23L5 23L5 25L4 25L4 26L6 26L6 25L7 25L7 24L8 24L8 25L9 25L9 23L11 23L11 22L9 22L9 21L10 21L10 20L11 20L11 21L13 21L13 22L14 22L14 24L15 24L15 25L14 25L14 26L12 26L12 24L13 24L13 23L12 23L12 24L11 24L11 27L13 27L13 29L14 29L14 27L17 27L17 30L18 30L18 29L20 29L20 30L23 30L23 31L24 31L24 29L25 29L25 28L24 28L24 29L22 29L22 27L20 27L20 28L18 28L18 26L19 26L19 25L18 25L18 23L19 23L19 22L18 22L18 21L19 21L19 20L21 20L21 21L20 21L20 23L21 23L21 21L22 21L22 23L24 23L24 24L25 24L25 22L24 22L24 21L25 21L25 19L24 19L24 17L25 17L25 15L24 15L24 14ZM36 14L36 17L37 17L37 14ZM1 15L1 16L2 16L2 17L3 17L3 16L2 16L2 15ZM6 15L6 16L5 16L5 17L6 17L6 16L7 16L7 15ZM23 16L23 17L24 17L24 16ZM13 18L13 19L12 19L12 20L14 20L14 19L15 19L15 18ZM16 18L16 19L17 19L17 18ZM22 18L22 21L24 21L24 20L23 20L23 18ZM32 18L32 19L33 19L33 18ZM5 19L5 20L7 20L7 19ZM15 20L15 21L14 21L14 22L15 22L15 24L16 24L16 25L17 25L17 26L18 26L18 25L17 25L17 23L18 23L18 22L17 22L17 23L16 23L16 21L17 21L17 20ZM31 20L31 21L33 21L33 22L35 22L35 23L36 23L36 22L35 22L35 21L34 21L34 20ZM2 21L2 22L3 22L3 21ZM38 22L38 26L39 26L39 27L40 27L40 24L39 24L39 23L40 23L40 22ZM6 23L6 24L7 24L7 23ZM26 23L26 24L27 24L27 23ZM15 28L15 29L16 29L16 28ZM20 28L20 29L21 29L21 28ZM30 28L30 30L28 30L28 31L30 31L30 32L32 32L32 31L35 31L35 32L36 32L36 31L35 31L35 30L34 30L34 29L31 29L31 28ZM2 30L2 31L3 31L3 30ZM38 31L38 33L37 33L37 34L39 34L39 35L40 35L40 34L39 34L39 33L40 33L40 32L39 32L39 31ZM0 32L0 33L2 33L2 32ZM4 32L4 33L5 33L5 32ZM12 32L12 33L13 33L13 34L15 34L15 35L16 35L16 34L17 34L17 33L13 33L13 32ZM33 33L33 36L36 36L36 33ZM26 34L26 35L27 35L27 34ZM34 34L34 35L35 35L35 34ZM19 36L19 37L16 37L16 38L19 38L19 39L20 39L20 40L21 40L21 39L23 39L23 40L24 40L24 39L23 39L23 38L21 38L21 39L20 39L20 37L21 37L21 36ZM28 39L28 40L29 40L29 39ZM0 0L0 7L7 7L7 0ZM1 1L1 6L6 6L6 1ZM2 2L2 5L5 5L5 2ZM34 0L34 7L41 7L41 0ZM35 1L35 6L40 6L40 1ZM36 2L36 5L39 5L39 2ZM0 34L0 41L7 41L7 34ZM1 35L1 40L6 40L6 35ZM2 36L2 39L5 39L5 36Z" fill="#000000"/></g></g></svg>